<svg xmlns="http://www.w3.org/2000/svg" xmlns:svg="http://www.w3.org/2000/svg" id="svg4707" width="17" height="16" version="1.1" viewBox="0 0 17 16"><metadata id="metadata4712"/><g id="layer1" transform="translate(0,-1036.3622)"><g id="question-mark"><path id="rect4150" d="m 8.6657195,1036.9844 c -2.4875504,0.1394 -4.3990246,2.0561 -4.2596854,4.5436 l 3.0291095,0 c -0.04786,-0.853 0.5668373,-1.4659 1.4198953,-1.5144 0.8530577,-0.051 1.5613551,0.5668 1.6092151,1.4198 l 0,0.047 c 0.006,0.1966 -0.04771,0.4928 -0.189319,0.6626 -0.3433045,0.4115 -0.7322127,0.7507 -1.0412576,0.9939 -0.3444853,0.2591 -0.7182624,0.577 -1.0885861,1.0414 -0.370324,0.4644 -0.7099477,1.1321 -0.7099477,1.8931 -0.010604,0.8002 0.7143095,1.5146 1.5145549,1.5146 0.8002449,0 1.5251565,-0.7144 1.5145555,-1.5146 0,0 -0.02749,0.046 0.04732,-0.047 0.07482,-0.095 0.278783,-0.256 0.567959,-0.4735 1.841758,-1.3963 2.413669,-2.1843 2.413819,-4.307 -0.139338,-2.4873 -2.34009,-4.3988 -4.8276413,-4.2596 z m 0.283979,12.1165 c -0.8364584,0 -1.5145549,0.678 -1.5145549,1.5146 0,0.8364 0.6780965,1.5145 1.5145549,1.5145 0.8364582,0 1.5145555,-0.6781 1.5145555,-1.5145 0,-0.8366 -0.6780973,-1.5146 -1.5145555,-1.5146 z" style="color:#000;clip-rule:nonzero;display:inline;overflow:visible;visibility:visible;opacity:1;isolation:auto;mix-blend-mode:normal;color-interpolation:sRGB;color-interpolation-filters:linearRGB;solid-color:#000;solid-opacity:1;fill:#ad7fa8;fill-opacity:1;fill-rule:nonzero;stroke:#1c5288;stroke-width:0;stroke-linecap:round;stroke-linejoin:miter;stroke-miterlimit:4;stroke-dasharray:none;stroke-dashoffset:0;stroke-opacity:.76999996;marker:none;color-rendering:auto;image-rendering:auto;shape-rendering:auto;text-rendering:auto;enable-background:accumulate"/><rect id="rect8319" width="16" height="16" x="0" y="1036.362" style="color:#bebebe;display:inline;overflow:visible;visibility:visible;fill:none;fill-opacity:1;stroke:none;stroke-width:1;marker:none"/></g></g></svg>